<svg width="46" height="48" viewBox="0 0 46 48" fill="none" xmlns="http://www.w3.org/2000/svg">
<mask id="mask0_15_198" style="mask-type:luminance" maskUnits="userSpaceOnUse" x="0" y="0" width="46" height="48">
<path d="M45.84 0H0.480011V48H45.84V0Z" fill="white"/>
</mask>
<g mask="url(#mask0_15_198)">
<path d="M45.648 8.064L43.968 33.552L28.416 0L45.648 8.064ZM34.8 41.04L23.184 47.808L11.376 41.04L13.632 35.232H32.592L34.8 41.04ZM23.184 12.768L29.184 27.744H16.992L23.184 12.768ZM2.16001 33.552L0.480011 8.064L17.712 0L2.16001 33.552Z" fill="#B0B0B0"/>
<path d="M45.648 8.064L43.968 33.552L28.416 0L45.648 8.064ZM34.8 41.04L23.184 47.808L11.376 41.04L13.632 35.232H32.592L34.8 41.04ZM23.184 12.768L29.184 27.744H16.992L23.184 12.768ZM2.16001 33.552L0.480011 8.064L17.712 0L2.16001 33.552Z" fill="#B0B0B0"/>
</g>
</svg>
