<svg width="49" height="48" viewBox="0 0 49 48" fill="none" xmlns="http://www.w3.org/2000/svg">
<g clip-path="url(#clip0_15_192)">
<path d="M24.144 28.224C26.496 28.224 28.368 26.352 28.368 24C28.368 21.648 26.496 19.776 24.144 19.776C21.792 19.776 19.92 21.648 19.92 24C19.92 26.352 21.792 28.224 24.144 28.224Z" fill="#B0B0B0"/>
<path d="M24.144 32.688C36.672 32.688 46.848 28.8 46.848 24C46.848 19.2 36.672 15.312 24.144 15.312C11.616 15.312 1.44 19.2 1.44 24C1.44 28.8 11.616 32.688 24.144 32.688Z" stroke="#B0B0B0" stroke-width="2.5"/>
<path d="M16.656 28.32C22.896 39.216 31.344 46.08 35.52 43.68C39.648 41.28 37.968 30.528 31.68 19.68C25.392 8.78401 16.944 1.92001 12.816 4.32001C8.64 6.72001 10.368 17.472 16.656 28.32Z" stroke="#B0B0B0" stroke-width="2.5"/>
<path d="M16.656 19.68C10.368 30.528 8.68799 41.28 12.816 43.68C16.944 46.08 25.392 39.216 31.632 28.32C37.92 17.472 39.648 6.72001 35.52 4.32001C31.344 1.92001 22.896 8.78401 16.656 19.68Z" stroke="#B0B0B0" stroke-width="2.5"/>
</g>
<defs>
<clipPath id="clip0_15_192">
<path d="M0 0H48.48V23.76C48.48 37.1474 37.6274 48 24.24 48C10.8526 48 0 37.1474 0 23.76V0Z" fill="white"/>
</clipPath>
</defs>
</svg>
