<svg width="49" height="48" viewBox="0 0 49 48" fill="none" xmlns="http://www.w3.org/2000/svg">
<g clip-path="url(#clip0_15_208)">
<path d="M42.168 26.928C40.488 26.928 39.048 27.36 37.8 27.936C37.368 27.072 36.888 26.256 36.84 25.68C36.744 25.008 36.648 24.576 36.744 23.808C36.84 22.992 37.32 21.84 37.32 21.744C37.32 21.648 37.224 21.264 36.264 21.216C35.304 21.216 34.488 21.408 34.392 21.648C34.296 21.888 34.104 22.464 34.008 23.088C33.864 23.952 32.088 27.072 31.08 28.752C30.744 28.128 30.456 27.552 30.408 27.12C30.312 26.448 30.216 26.016 30.312 25.248C30.408 24.48 30.888 23.28 30.888 23.184C30.888 23.088 30.792 22.704 29.832 22.656C28.872 22.656 28.056 22.848 27.96 23.088C27.864 23.328 27.768 23.952 27.576 24.528C27.384 25.104 25.032 30.336 24.408 31.68C24.072 32.352 23.832 32.928 23.64 33.312C23.64 33.312 23.64 33.36 23.592 33.36C23.448 33.696 23.352 33.84 23.352 33.84C23.208 34.08 23.064 34.272 23.016 34.272C22.968 34.272 22.872 33.648 23.016 32.784C23.352 30.96 24.216 28.128 24.168 28.032C24.168 27.984 24.312 27.504 23.64 27.216C22.968 26.976 22.728 27.36 22.632 27.36C22.584 27.36 22.536 27.504 22.536 27.504C22.536 27.504 23.304 24.336 21.096 24.336C19.704 24.336 17.784 25.872 16.872 27.216C16.296 27.552 15 28.224 13.656 28.992C13.128 29.28 12.6 29.568 12.12 29.856C12.072 29.808 12.072 29.76 12.024 29.76C9.19204 26.976 4.24804 24.96 4.44004 21.12C4.53604 19.68 5.01604 16.032 13.944 11.568C21.336 7.91999 27.192 8.92799 28.2 11.184C29.64 14.352 25.032 20.304 17.448 21.168C14.52 21.504 13.032 20.352 12.648 19.968C12.264 19.536 12.168 19.488 12.024 19.584C11.784 19.728 11.928 20.112 12.024 20.352C12.264 20.928 13.176 21.984 14.76 22.512C16.152 22.944 19.56 23.232 23.688 21.648C28.296 19.872 31.944 14.88 30.84 10.704C29.784 6.47999 22.776 5.08799 16.152 7.43999C12.216 8.83199 7.94404 11.04 4.87204 13.92C1.22404 17.28 0.648042 20.256 0.888042 21.504C1.75204 25.92 7.84804 28.8 10.248 30.912C10.104 30.96 10.008 31.056 9.91204 31.104C8.71204 31.728 4.05604 34.128 2.90404 36.72C1.60804 39.648 3.09604 41.712 4.10404 42C7.22404 42.864 10.44 41.328 12.168 38.736C13.896 36.144 13.704 32.832 12.888 31.296C12.888 31.296 12.888 31.248 12.84 31.248C13.176 31.056 13.464 30.864 13.8 30.672C14.424 30.288 15.048 29.952 15.576 29.664C15.288 30.48 15.048 31.44 14.952 32.832C14.808 34.464 15.48 36.624 16.392 37.44C16.776 37.824 17.256 37.824 17.544 37.824C18.6 37.824 19.032 36.96 19.56 35.952C20.184 34.704 20.76 33.264 20.76 33.264C20.76 33.264 20.04 37.152 21.96 37.152C22.68 37.152 23.352 36.24 23.688 35.76C23.688 35.76 23.688 35.712 23.736 35.664C23.784 35.568 23.832 35.472 23.832 35.472C24.12 34.992 24.744 33.888 25.704 32.016C26.904 29.616 28.056 26.64 28.056 26.64C28.056 26.64 28.152 27.36 28.536 28.56C28.728 29.28 29.208 30.048 29.544 30.816C29.256 31.2 29.112 31.44 29.112 31.44C28.872 31.728 28.632 32.064 28.344 32.4C27.384 33.552 26.232 34.848 26.088 35.232C25.896 35.664 25.944 36 26.28 36.288C26.52 36.48 27 36.528 27.432 36.48C28.296 36.432 28.92 36.192 29.208 36.096C29.688 35.952 30.216 35.664 30.744 35.28C31.704 34.608 32.232 33.6 32.184 32.304C32.136 31.584 31.944 30.864 31.608 30.192C31.704 30.048 31.752 29.952 31.848 29.808C33.336 27.648 34.488 25.248 34.488 25.248C34.488 25.248 34.584 25.968 34.968 27.168C35.16 27.792 35.496 28.464 35.832 29.088C34.44 30.24 33.576 31.536 33.288 32.4C32.712 33.984 33.144 34.704 33.96 34.896C34.344 34.992 34.872 34.8 35.256 34.656C35.736 34.512 36.312 34.224 36.888 33.84C37.848 33.168 38.712 32.16 38.664 30.864C38.616 30.288 38.472 29.664 38.28 29.088C39.48 28.608 40.968 28.32 42.936 28.56C47.112 29.04 47.928 31.632 47.784 32.736C47.64 33.84 46.728 34.416 46.44 34.608C46.152 34.8 46.056 34.848 46.104 34.992C46.152 35.184 46.296 35.184 46.536 35.136C46.872 35.088 48.744 34.272 48.792 32.256C48.984 29.712 46.488 26.928 42.168 26.928ZM9.96004 37.776C8.56804 39.264 6.64804 39.84 5.83204 39.36C4.92004 38.832 5.30404 36.624 6.98404 35.04C8.04004 34.08 9.33604 33.168 10.248 32.592C10.44 32.448 10.728 32.304 11.112 32.064C11.16 32.016 11.208 32.016 11.208 32.016C11.256 31.968 11.352 31.92 11.4 31.872C12.024 34.176 11.448 36.192 9.96004 37.776ZM20.04 30.912C19.56 32.064 18.552 35.088 17.928 34.944C17.4 34.8 17.064 32.544 17.832 30.288C18.216 29.136 18.984 27.792 19.464 27.264C20.232 26.4 21.048 26.16 21.24 26.496C21.528 26.928 20.376 30.192 20.04 30.912ZM28.392 34.896C28.2 34.992 28.008 35.088 27.912 35.04C27.864 34.992 28.008 34.848 28.008 34.848C28.008 34.848 29.064 33.744 29.448 33.216C29.688 32.928 29.976 32.544 30.264 32.16C30.264 32.208 30.264 32.256 30.264 32.256C30.264 33.648 28.968 34.56 28.392 34.896ZM34.776 33.456C34.632 33.36 34.632 33.024 35.16 31.92C35.352 31.488 35.832 30.768 36.6 30.096C36.696 30.384 36.744 30.672 36.744 30.912C36.744 32.544 35.544 33.168 34.776 33.456Z" fill="#B0B0B0"/>
</g>
<defs>
<clipPath id="clip0_15_208">
<rect width="48" height="48" fill="white" transform="translate(0.840027)"/>
</clipPath>
</defs>
</svg>
