<svg width="49" height="39" viewBox="0 0 49 39" fill="none" xmlns="http://www.w3.org/2000/svg">
<path fill-rule="evenodd" clip-rule="evenodd" d="M10.824 0C8.08803 0 6.07203 2.4 6.16803 4.992C6.26403 7.488 6.12003 10.704 5.30403 13.344C4.48803 15.984 3.09603 17.664 0.840027 17.904V20.352C3.09603 20.544 4.48803 22.224 5.30403 24.912C6.12003 27.504 6.21603 30.72 6.12003 33.264C6.02403 35.856 8.04003 38.256 10.776 38.256H38.856C41.592 38.256 43.608 35.856 43.512 33.264C43.464 30.72 43.56 27.504 44.376 24.864C45.192 22.224 46.584 20.544 48.84 20.304V17.856C46.584 17.664 45.192 15.984 44.376 13.296C43.56 10.752 43.464 7.488 43.56 4.992C43.656 2.4 41.64 0 38.904 0H10.824ZM33.384 23.52C33.384 27.12 30.696 29.28 26.28 29.28H18.744C18.552 29.28 18.312 29.184 18.168 29.04C18.024 28.896 17.928 28.704 17.928 28.464V9.744C17.928 9.552 18.024 9.312 18.168 9.168C18.312 9.024 18.504 8.928 18.744 8.928H26.232C29.928 8.928 32.328 10.944 32.328 14.016C32.328 16.176 30.696 18.096 28.632 18.432V18.528C31.464 18.864 33.384 20.832 33.384 23.52ZM25.464 11.52H21.144V17.616H24.744C27.528 17.616 29.112 16.512 29.112 14.496C29.112 12.576 27.816 11.52 25.464 11.52ZM21.144 20.016V26.688H25.608C28.536 26.688 30.072 25.536 30.072 23.328C30.072 21.12 28.488 20.016 25.416 20.016H21.144Z" fill="#B0B0B0"/>
</svg>
