<svg width="49" height="48" viewBox="0 0 49 48" fill="none" xmlns="http://www.w3.org/2000/svg">
<g clip-path="url(#clip0_17_215)">
<path d="M0.840027 0H48.84V48H0.840027V0Z" fill="#B0B0B0"/>
<path d="M23.88 17.76H26.184V21.744H19.944V39.408L19.8 39.456C19.56 39.504 16.632 39.504 15.96 39.456L15.432 39.408V21.744H9.19202V17.76H11.16C12.216 17.76 15 17.76 17.304 17.76C19.704 17.76 22.632 17.76 23.88 17.76ZM41.448 37.584C40.536 38.544 39.528 39.072 37.896 39.552C37.176 39.744 37.08 39.744 35.448 39.744C33.864 39.744 33.72 39.744 32.952 39.552C30.936 39.024 29.304 38.016 28.2 36.576C27.864 36.192 27.384 35.328 27.384 35.232C27.384 35.184 27.48 35.136 27.576 35.088C27.672 35.04 27.864 34.896 28.056 34.8C28.2 34.704 28.536 34.512 28.728 34.416C28.92 34.32 29.496 33.984 30.024 33.648C30.552 33.36 30.984 33.072 31.032 33.072C31.08 33.072 31.176 33.168 31.272 33.312C31.704 34.08 32.76 35.04 33.528 35.376C34.008 35.568 35.016 35.808 35.496 35.808C35.928 35.808 36.792 35.616 37.224 35.424C37.704 35.184 37.944 34.992 38.232 34.56C38.424 34.272 38.472 34.176 38.424 33.6C38.424 33.072 38.376 32.928 38.232 32.64C37.8 31.968 37.224 31.584 34.92 30.576C32.52 29.52 31.464 28.896 30.6 28.032C29.976 27.408 29.832 27.216 29.4 26.448C28.872 25.44 28.824 25.104 28.824 23.616C28.824 22.56 28.824 22.224 28.968 21.84C29.112 21.312 29.64 20.256 29.88 20.016C30.36 19.44 30.552 19.296 30.888 19.008C31.896 18.144 33.48 17.616 35.016 17.568C35.208 17.568 35.736 17.616 36.312 17.616C37.848 17.76 38.904 18.096 39.912 18.912C40.68 19.488 41.832 20.928 41.688 21.12C41.592 21.216 38.616 23.232 38.424 23.28C38.328 23.328 38.232 23.28 38.04 23.088C37.032 21.888 36.6 21.6 35.64 21.552C34.92 21.504 34.584 21.6 34.104 21.888C33.624 22.224 33.384 22.704 33.384 23.424C33.384 24.432 33.768 24.912 35.208 25.632C36.12 26.112 36.936 26.448 36.984 26.448C37.08 26.448 39 27.408 39.48 27.696C41.832 29.088 42.792 30.48 43.032 32.928C43.08 34.704 42.6 36.384 41.448 37.584Z" fill="white"/>
</g>
<defs>
<clipPath id="clip0_17_215">
<rect width="48" height="48" fill="white" transform="translate(0.840027)"/>
</clipPath>
</defs>
</svg>
